<?xml version="1.0" standalone="no"?>
<!DOCTYPE svg PUBLIC "-//W3C//DTD SVG 20010904//EN"
 "http://www.w3.org/TR/2001/REC-SVG-20010904/DTD/svg10.dtd">
<svg version="1.0" xmlns="http://www.w3.org/2000/svg"
 width="640.000000pt" height="1280.000000pt" viewBox="0 0 640.000000 1280.000000"
 preserveAspectRatio="xMidYMid meet">
<metadata>
Created by potrace 1.15, written by Peter Selinger 2001-2017
</metadata>
<g transform="translate(0.000000,1280.000000) scale(0.100000,-0.100000)"
fill="#000000" stroke="none">
<path d="M2982 12784 c-19 -13 -22 -24 -22 -75 0 -55 -1 -59 -24 -59 -31 0
-45 -18 -54 -71 -7 -41 -10 -44 -42 -47 -19 -2 -41 -8 -47 -14 -17 -14 -18
-159 -1 -176 7 -7 31 -12 54 -12 39 0 44 -3 71 -45 15 -25 31 -45 36 -45 4 0
7 -18 7 -39 0 -30 6 -44 25 -59 25 -20 34 -65 16 -77 -5 -3 -18 -29 -27 -58
l-18 -52 -6 33 c-7 44 -22 42 -37 -3 -18 -52 -22 -151 -5 -148 15 4 15 1 -4
-93 -22 -112 -23 -115 -41 -71 -16 40 -36 45 -41 10 -2 -12 8 -55 22 -97 14
-42 26 -97 26 -122 0 -47 32 -124 52 -124 12 0 12 -37 -22 -1480 -30 -1280
-31 -1330 -44 -1330 -6 0 -34 -34 -61 -76 -95 -145 -250 -279 -625 -539 -431
-299 -599 -443 -748 -640 -154 -205 -252 -527 -252 -829 0 -140 17 -245 75
-452 49 -176 57 -218 19 -109 -27 81 -25 68 17 -110 44 -185 35 -171 116 -177
192 -15 325 -142 385 -367 53 -201 26 -577 -60 -850 l-28 -86 -64 -6 c-36 -4
-111 -7 -166 -8 -112 -1 -114 -2 -114 -73 0 -20 -93 -194 -126 -237 -2 -2 -31
2 -66 8 -48 8 -65 8 -75 -2 -7 -6 -28 -69 -47 -139 -94 -343 -162 -751 -201
-1206 -22 -255 -2 -423 79 -666 97 -291 308 -589 563 -798 351 -286 824 -465
1309 -494 84 -5 133 -14 187 -33 129 -46 122 -31 157 -311 28 -219 29 -244 15
-260 -8 -9 -15 -29 -15 -43 0 -26 2 -27 55 -27 52 0 55 1 55 25 0 14 -10 35
-22 48 -13 12 -22 24 -22 27 1 3 14 102 29 220 15 118 31 224 36 236 4 13 42
39 96 66 88 45 88 45 223 52 372 19 675 93 970 237 469 229 799 585 945 1022
45 133 61 214 75 367 10 113 9 150 -14 375 -14 138 -35 304 -46 370 -44 254
-153 646 -243 875 -32 81 -35 85 -63 83 -26 -2 -36 8 -99 95 -51 71 -72 108
-77 141 -4 24 -10 47 -15 51 -4 4 -99 11 -211 14 l-203 7 17 -33 c9 -18 29
-47 43 -65 14 -17 44 -56 65 -85 33 -43 35 -48 12 -28 -46 41 -123 156 -155
233 -62 149 -90 305 -91 492 0 387 110 645 322 755 37 19 65 36 63 38 -4 5
-126 -57 -150 -77 -20 -16 -20 -16 0 7 22 26 162 97 212 107 18 4 35 10 37 14
9 13 84 296 107 401 33 148 34 396 1 552 -89 429 -218 660 -506 906 -121 104
-237 189 -494 361 -117 78 -258 176 -315 218 -138 102 -282 249 -337 343 -24
41 -51 82 -60 91 -13 14 -18 66 -28 330 -41 1045 -73 1854 -82 2053 -5 126
-10 266 -10 311 0 77 1 82 25 95 49 26 69 75 73 180 2 65 10 111 24 147 11 29
17 60 14 69 -6 15 -8 15 -26 -1 -22 -20 -17 -33 -45 119 -9 49 -21 100 -26
112 -12 32 -3 30 28 -6 28 -34 53 -39 53 -11 0 25 -97 131 -119 131 -9 0 -22
5 -29 12 -16 16 -15 48 1 48 24 0 47 35 47 72 0 20 12 56 26 82 21 37 31 46
53 46 42 0 51 17 51 100 0 81 -9 100 -47 100 -19 0 -23 5 -23 29 0 44 -18 82
-40 88 -17 4 -20 14 -20 57 0 57 -5 68 -37 85 -34 18 -224 14 -251 -5z m-1685
-6996 c-3 -8 -6 -5 -6 6 -1 11 2 17 5 13 3 -3 4 -12 1 -19z m3403 -261 c0 -2
-12 -14 -27 -28 l-28 -24 24 28 c23 25 31 32 31 24z m443 -1534 c-7 -2 -21 -2
-30 0 -10 3 -4 5 12 5 17 0 24 -2 18 -5z m-75 -10 c-16 -2 -40 -2 -55 0 -16 2
-3 4 27 4 30 0 43 -2 28 -4z"/>
<path d="M1231 5974 c0 -11 3 -14 6 -6 3 7 2 16 -1 19 -3 4 -6 -2 -5 -13z"/>
</g>
</svg>
